# xmcd CD database file
#
# Track frame offsets:
#	150
#	27299
#	60313
#	79971
#	101382
#	136709
#	162150
#	181563
#	203109
#	235998
#	256633
#	274089
#
# Disc length: 3965 seconds
#
# Revision: 0
# Processed by: cddbd v1.5.2PL0 Copyright (c) Steve Scherf et al.
# Submitted via: CDex 1.70beta2
#
DISCID=8c0f7b0c
DTITLE=diverse - Dinner Music 3
DYEAR=2004
DGENRE=Jazz
TTITLE0=quadro nuevo - giovanni tranquillo_remix
TTITLE1=martin kälberer - der stille und die tänzerin
TTITLE2=dalio and mulo - sansul
TTITLE3=quadro nuevo - jakob elija
TTITLE4=martin kälberer - dämmerung
TTITLE5=martin kälberer - das licht (am ende des tunnels)
TTITLE6=quadro nuevo - sultana
TTITLE7=dalio and mulo - je m'appelle gispel
TTITLE8=martin kälberer - die erde von oben betrachtet
TTITLE9=d.d.lowka - fiera triste_remix
TTITLE10=quadro nuevo - el sospiro del moro
TTITLE11=dalio and mulo - poperoncini
EXTD=YEAR: 2004
EXTT0=
EXTT1=
EXTT2=
EXTT3=
EXTT4=
EXTT5=
EXTT6=
EXTT7=
EXTT8=
EXTT9=
EXTT10=
EXTT11=
PLAYORDER=
